<?xml version="1.0" encoding="utf-8"?>
<!-- Generator: Adobe Illustrator 25.2.0, SVG Export Plug-In . SVG Version: 6.00 Build 0)  -->
<svg version="1.1" id="Layer_1" xmlns="http://www.w3.org/2000/svg" xmlns:xlink="http://www.w3.org/1999/xlink" x="0px" y="0px"
	 viewBox="0 0 323 525.1" style="enable-background:new 0 0 323 525.1;" xml:space="preserve">
<style type="text/css">
	.st0{fill:#FFA300;}
	.st1{fill:#FFFFFF;}
	.st2{fill:none;stroke:#FFFFFF;stroke-width:4;stroke-miterlimit:10;}
</style>
<g>
	
		<image style="overflow:visible;opacity:0.5;enable-background:new    ;" width="1279" height="1788" xlink:href="2C486872.png"  transform="matrix(0.2395 0 0 0.2395 8.3805 48.356)">
	</image>
	<g>
		<path class="st0" d="M270.4,461.2H52.6c-16.2,0-29.4-13.2-29.4-29.4V93.2c0-16.2,13.2-29.4,29.4-29.4h217.7
			c16.2,0,29.4,13.2,29.4,29.4v338.6C299.8,448.1,286.6,461.2,270.4,461.2z"/>
	</g>
</g>
<ellipse transform="matrix(0.8005 -0.5993 0.5993 0.8005 -125.995 149.4603)" class="st1" cx="161.5" cy="264" rx="160.3" ry="86.7"/>
<g>
	<g>
		<g>
			<image style="overflow:visible;" width="82" height="129" xlink:href="7A924185.png"  transform="matrix(1 0 0 1 104 209.1)">
			</image>
			<g>
				<path class="st0" d="M168.9,329.5h-47.6c-5,0-9-4-9-9v-93.9c0-5,4-9,9-9h47.6c5,0,9,4,9,9v93.9
					C177.9,325.5,173.9,329.5,168.9,329.5z"/>
				<path class="st2" d="M168.9,329.5h-47.6c-5,0-9-4-9-9v-93.9c0-5,4-9,9-9h47.6c5,0,9,4,9,9v93.9
					C177.9,325.5,173.9,329.5,168.9,329.5z"/>
			</g>
		</g>
	</g>
	<g>
		<image style="overflow:visible;" width="82" height="129" xlink:href="7A92418B.png"  transform="matrix(1 0 0 1 137 187.1)">
		</image>
		<g>
			<path class="st0" d="M201.7,307.4h-47.6c-5,0-9-4-9-9v-93.9c0-5,4-9,9-9h47.6c5,0,9,4,9,9v93.9
				C210.7,303.4,206.6,307.4,201.7,307.4z"/>
			<path class="st2" d="M201.7,307.4h-47.6c-5,0-9-4-9-9v-93.9c0-5,4-9,9-9h47.6c5,0,9,4,9,9v93.9
				C210.7,303.4,206.6,307.4,201.7,307.4z"/>
		</g>
	</g>
</g>
<g>
	<g>
		<path class="st1" d="M66.6,105.9v5.7h-24v-5.7H66.6z M57.7,120.8h-6v-24h6V120.8z"/>
		<path class="st1" d="M74.3,123.4l15-20c0.9-1.1,1.5-2.3,2-3.6c0.5-1.2,0.7-2.4,0.7-3.4v-0.1c0-1.7-0.5-3-1.5-4
			c-1-0.9-2.4-1.4-4.3-1.4c-1.8,0-3.2,0.5-4.3,1.6s-1.7,2.5-2,4.4v0h-6.2v0c0.4-2.5,1.1-4.6,2.2-6.3c1.1-1.7,2.5-3.1,4.2-4
			s3.7-1.4,6-1.4c2.6,0,4.8,0.4,6.6,1.3c1.8,0.9,3.2,2.2,4.1,3.8c0.9,1.7,1.4,3.7,1.4,6.1v0c0,1.5-0.3,3.1-0.9,4.8
			c-0.6,1.7-1.5,3.3-2.6,4.8l-12.4,16.9h16.3v5.7H74.3V123.4z"/>
	</g>
</g>
<g>
	<g>
		<path class="st1" d="M238.8,410.3v5.7h-24v-5.7H238.8z M229.8,425.2h-6v-24h6V425.2z"/>
		<path class="st1" d="M246.5,427.8l15-20c0.9-1.1,1.5-2.3,2-3.6c0.5-1.2,0.7-2.4,0.7-3.4v-0.1c0-1.7-0.5-3-1.5-4
			c-1-0.9-2.4-1.4-4.3-1.4c-1.8,0-3.2,0.5-4.3,1.6c-1.1,1-1.7,2.5-2,4.4v0h-6.2v0c0.4-2.5,1.1-4.6,2.2-6.3s2.5-3.1,4.2-4
			c1.7-0.9,3.7-1.4,6-1.4c2.6,0,4.8,0.4,6.6,1.3c1.8,0.9,3.2,2.2,4.1,3.8s1.4,3.7,1.4,6.1v0c0,1.5-0.3,3.1-0.9,4.8
			c-0.6,1.7-1.5,3.3-2.6,4.8l-12.4,16.9h16.3v5.7h-24.2V427.8z"/>
	</g>
</g>
</svg>
