<?xml version="1.0" encoding="utf-8"?>
<!-- Generator: Adobe Illustrator 25.2.0, SVG Export Plug-In . SVG Version: 6.00 Build 0)  -->
<svg version="1.1" id="Layer_1" xmlns="http://www.w3.org/2000/svg" xmlns:xlink="http://www.w3.org/1999/xlink" x="0px" y="0px"
	 viewBox="0 0 323 525.1" style="enable-background:new 0 0 323 525.1;" xml:space="preserve">
<style type="text/css">
	.st0{fill:#FFA300;}
	.st1{fill:#FFFFFF;}
</style>
<g>
	
		<image style="overflow:visible;opacity:0.5;enable-background:new    ;" width="1279" height="1788" xlink:href="440F174E.png"  transform="matrix(0.2395 0 0 0.2395 8.3805 48.356)">
	</image>
	<g>
		<path class="st0" d="M270.4,461.2H52.6c-16.2,0-29.4-13.2-29.4-29.4V93.2c0-16.2,13.2-29.4,29.4-29.4h217.7
			c16.2,0,29.4,13.2,29.4,29.4v338.6C299.8,448.1,286.6,461.2,270.4,461.2z"/>
	</g>
</g>
<ellipse transform="matrix(0.8005 -0.5993 0.5993 0.8005 -125.995 149.4603)" class="st1" cx="161.5" cy="264" rx="160.3" ry="86.7"/>
<g>
	<g>
		<path class="st1" d="M61.9,149.1c-2.5-1.2-4.6-3-6.1-5.3s-2.5-5.1-2.9-8.3h8.5c0.2,1.7,0.8,3.1,1.6,4.2c0.8,1.1,1.9,1.9,3.2,2.4
			c1.3,0.5,2.8,0.8,4.5,0.8c2.7,0,4.9-0.7,6.4-2.2s2.3-3.5,2.3-6.2v-1.8c0-3-0.7-5.2-2.2-6.9c-1.4-1.6-3.5-2.4-6.1-2.4h-4.2v-7.9H71
			c2.3,0,4.1-0.7,5.4-2.1s1.9-3.3,1.9-5.9v-1.8c0-2.3-0.7-4.1-2-5.4s-3.3-1.9-5.7-1.9c-1.4,0-2.7,0.3-3.8,0.8
			c-1.1,0.5-2.1,1.3-2.8,2.4c-0.8,1.1-1.3,2.5-1.7,4.1h-8.4c0.5-3.2,1.6-6,3.1-8.3s3.4-4.1,5.7-5.3c2.3-1.2,5-1.8,7.9-1.8
			c5.1,0,9.1,1.3,11.9,4s4.2,6.5,4.2,11.4v1c0,3-0.8,5.5-2.4,7.7s-3.9,3.8-6.8,4.8c3.2,0.7,5.7,2.3,7.5,4.8s2.7,5.6,2.7,9.4v1
			c0,3.4-0.7,6.4-2,8.8c-1.3,2.4-3.3,4.3-5.8,5.6s-5.6,1.9-9.2,1.9C67.3,151,64.4,150.4,61.9,149.1z"/>
	</g>
</g>
<g>
	<g>
		<path class="st1" d="M243.8,428.8c-2.5-1.2-4.6-3-6.1-5.3s-2.5-5.1-2.9-8.3h8.5c0.2,1.7,0.8,3.1,1.6,4.2s1.9,1.9,3.2,2.4
			s2.8,0.8,4.5,0.8c2.7,0,4.9-0.7,6.4-2.2s2.3-3.5,2.3-6.2v-1.8c0-3-0.7-5.2-2.2-6.9c-1.4-1.6-3.5-2.4-6.1-2.4h-4.2v-7.9h4.2
			c2.3,0,4.1-0.7,5.4-2.1s1.9-3.3,1.9-5.9v-1.8c0-2.3-0.7-4.1-2-5.4s-3.3-1.9-5.7-1.9c-1.4,0-2.7,0.3-3.8,0.8s-2.1,1.3-2.8,2.4
			c-0.8,1.1-1.3,2.5-1.7,4.1h-8.4c0.5-3.2,1.6-6,3.1-8.3s3.4-4.1,5.7-5.3c2.3-1.2,5-1.8,7.9-1.8c5.1,0,9.1,1.3,11.9,4
			c2.8,2.7,4.2,6.5,4.2,11.4v1c0,3-0.8,5.5-2.4,7.7s-3.9,3.8-6.8,4.8c3.2,0.7,5.7,2.3,7.5,4.8s2.7,5.6,2.7,9.4v1
			c0,3.4-0.7,6.4-2,8.8s-3.3,4.3-5.8,5.6c-2.5,1.3-5.6,1.9-9.2,1.9C249.2,430.6,246.3,430,243.8,428.8z"/>
	</g>
</g>
<g>
	<g>
		<path class="st0" d="M148.9,295.4c-3.6-1.7-6.5-4.2-8.6-7.5c-2.2-3.3-3.6-7.2-4.1-11.8h12c0.3,2.4,1.1,4.4,2.3,5.9
			s2.6,2.7,4.5,3.4c1.8,0.8,4,1.1,6.4,1.1c3.9,0,6.9-1,9.1-3.1c2.2-2.1,3.2-5,3.2-8.8v-2.5c0-4.2-1-7.4-3.1-9.7
			c-2-2.3-4.9-3.4-8.7-3.4h-6v-11.2h6c3.3,0,5.8-1,7.6-2.9c1.8-2,2.7-4.7,2.7-8.3V234c0-3.3-1-5.9-2.9-7.7s-4.6-2.7-8.1-2.7
			c-2,0-3.8,0.4-5.4,1.1c-1.6,0.8-2.9,1.9-4,3.5s-1.9,3.5-2.4,5.9h-12c0.8-4.6,2.2-8.5,4.4-11.8c2.1-3.3,4.8-5.8,8.1-7.5
			s7-2.5,11.3-2.5c7.2,0,12.8,1.9,16.8,5.7s6,9.2,6,16.1v1.4c0,4.2-1.1,7.9-3.4,11c-2.3,3.1-5.5,5.4-9.6,6.8c4.6,1,8.1,3.3,10.7,6.8
			c2.5,3.5,3.8,8,3.8,13.4v1.4c0,4.9-0.9,9.1-2.8,12.5c-1.9,3.5-4.6,6.1-8.2,7.9c-3.6,1.8-7.9,2.7-13,2.7
			C156.6,298,152.5,297.1,148.9,295.4z"/>
	</g>
</g>
</svg>
