<?xml version="1.0" encoding="utf-8"?>
<!-- Generator: Adobe Illustrator 25.2.0, SVG Export Plug-In . SVG Version: 6.00 Build 0)  -->
<svg version="1.1" id="Layer_1" xmlns="http://www.w3.org/2000/svg" xmlns:xlink="http://www.w3.org/1999/xlink" x="0px" y="0px"
	 viewBox="0 0 323 525.1" style="enable-background:new 0 0 323 525.1;" xml:space="preserve">
<style type="text/css">
	.st0{fill:#FFA300;}
	.st1{fill:#FFFFFF;}
</style>
<g>
	
		<image style="overflow:visible;opacity:0.5;enable-background:new    ;" width="1279" height="1788" xlink:href="FE1D6B99.png"  transform="matrix(0.2395 0 0 0.2395 8.3805 48.356)">
	</image>
	<g>
		<path class="st0" d="M270.4,461.2H52.6c-16.2,0-29.4-13.2-29.4-29.4V93.2c0-16.2,13.2-29.4,29.4-29.4h217.7
			c16.2,0,29.4,13.2,29.4,29.4v338.6C299.8,448.1,286.6,461.2,270.4,461.2z"/>
	</g>
</g>
<ellipse transform="matrix(0.8005 -0.5993 0.5993 0.8005 -125.995 149.4603)" class="st1" cx="161.5" cy="264" rx="160.3" ry="86.7"/>
<g>
	<g>
		<path class="st1" d="M54.5,134.1l19.9-42.9H83l-19.4,42.4h29v7.7H54.5V134.1z M80,115.5h8.1v34.9H80V115.5z"/>
	</g>
</g>
<g>
	<g>
		<path class="st1" d="M236.4,413.7l19.9-42.9h8.6l-19.4,42.4h29v7.7h-38.1V413.7z M261.9,395.2h8.1V430h-8.1V395.2z"/>
	</g>
</g>
<g>
	<g>
		<path class="st0" d="M135.4,274l28.2-60.8h12.1l-27.5,60.1h41.2v10.9h-54V274z M171.6,247.7h11.5v49.5h-11.5V247.7z"/>
	</g>
</g>
</svg>
