<?xml version="1.0" encoding="utf-8"?>
<!-- Generator: Adobe Illustrator 25.2.0, SVG Export Plug-In . SVG Version: 6.00 Build 0)  -->
<svg version="1.1" id="Layer_1" xmlns="http://www.w3.org/2000/svg" xmlns:xlink="http://www.w3.org/1999/xlink" x="0px" y="0px"
	 viewBox="0 0 323 525.1" style="enable-background:new 0 0 323 525.1;" xml:space="preserve">
<style type="text/css">
	.st0{fill:#FFA300;}
	.st1{fill:#FFFFFF;}
</style>
<g>
	
		<image style="overflow:visible;opacity:0.5;enable-background:new    ;" width="1279" height="1788" xlink:href="A0651104.png"  transform="matrix(0.2395 0 0 0.2395 8.3805 48.356)">
	</image>
	<g>
		<path class="st0" d="M270.4,461.2H52.6c-16.2,0-29.4-13.2-29.4-29.4V93.2c0-16.2,13.2-29.4,29.4-29.4h217.7
			c16.2,0,29.4,13.2,29.4,29.4v338.6C299.8,448.1,286.6,461.2,270.4,461.2z"/>
	</g>
</g>
<ellipse transform="matrix(0.8005 -0.5993 0.5993 0.8005 -125.995 149.4603)" class="st1" cx="161.5" cy="264" rx="160.3" ry="86.7"/>
<g>
	<g>
		<path class="st1" d="M76.3,120.9v1.5c-0.7,1.2-1.7,2.2-3.1,2.7c-1.4,0.6-3,0.9-4.9,0.9c-2.8,0-5.3-0.7-7.5-2.2
			c-2.1-1.4-3.8-3.5-5-6.1S54,112,54,108.6l0,0c0-3.8,0.6-7.1,1.9-9.8c1.3-2.7,3.2-4.8,5.7-6.2c2.5-1.4,5.5-2.1,8.9-2.1
			c3.5,0,6.4,0.7,8.9,2.2c2.5,1.4,4.4,3.5,5.6,6.3c1.3,2.7,1.9,6,1.9,9.9l0,0c0,2.1-0.3,4.4-0.8,6.8s-1.3,4.8-2.3,7.1
			c-0.2,0.4-0.3,0.7-0.5,1.1s-0.3,0.7-0.5,1.1l-12.6,25.4h-9L76.3,120.9z M76.7,115.8c1.4-1.8,2.1-4.2,2.1-7.5l0,0
			c0-3.1-0.7-5.5-2.1-7.2s-3.4-2.6-6-2.6s-4.7,0.9-6.1,2.6s-2.1,4.1-2.1,7.3l0,0c0,3.2,0.7,5.7,2.1,7.4c1.4,1.8,3.5,2.6,6.1,2.6
			C73.2,118.5,75.3,117.6,76.7,115.8z"/>
	</g>
</g>
<g>
	<g>
		<path class="st1" d="M258.2,400.6v1.5c-0.7,1.2-1.7,2.2-3.1,2.8c-1.4,0.6-3,0.9-4.9,0.9c-2.8,0-5.3-0.7-7.5-2.2s-3.8-3.5-5-6.1
			s-1.8-5.7-1.8-9.1l0,0c0-3.8,0.6-7.1,1.9-9.8c1.3-2.7,3.2-4.8,5.7-6.2s5.5-2.1,8.9-2.1c3.5,0,6.4,0.7,8.9,2.2
			c2.5,1.4,4.4,3.5,5.6,6.3c1.3,2.7,1.9,6,1.9,9.9l0,0c0,2.1-0.3,4.4-0.8,6.8s-1.3,4.8-2.3,7.1c-0.2,0.4-0.3,0.7-0.5,1.1
			s-0.3,0.7-0.5,1.1L252.3,430h-9L258.2,400.6z M258.6,395.4c1.4-1.8,2.1-4.2,2.1-7.5l0,0c0-3.1-0.7-5.5-2.1-7.2s-3.4-2.6-6-2.6
			s-4.7,0.9-6.1,2.6c-1.4,1.7-2.1,4.1-2.1,7.3l0,0c0,3.2,0.7,5.7,2.1,7.4c1.4,1.8,3.5,2.6,6.1,2.6
			C255.1,398.1,257.2,397.2,258.6,395.4z"/>
	</g>
</g>
<g>
	<g>
		<path class="st0" d="M166.3,255.4l-0.1,2.1c-1,1.8-2.4,3.1-4.4,3.9c-1.9,0.8-4.2,1.2-6.9,1.2c-4,0-7.5-1-10.6-3.1
			c-3-2-5.4-4.9-7.1-8.6c-1.7-3.7-2.5-8-2.5-12.9v-0.1c0-5.4,0.9-10.1,2.7-13.9c1.8-3.9,4.5-6.8,8-8.8s7.8-3,12.7-3s9.1,1,12.7,3.1
			c3.5,2,6.2,5,8,8.9s2.7,8.6,2.7,14v0.1c0,3-0.4,6.2-1.2,9.6c-0.8,3.4-1.9,6.8-3.3,10.1c-0.2,0.5-0.5,1-0.7,1.5s-0.5,1-0.8,1.5
			l-17.9,36h-12.7L166.3,255.4z M166.8,248.1c2-2.5,3-6,3-10.6v-0.1c0-4.4-1-7.9-3-10.3c-2-2.4-4.9-3.6-8.6-3.6
			c-3.7,0-6.6,1.2-8.6,3.6c-2,2.4-3,5.9-3,10.3v0.1c0,4.5,1,8.1,3,10.5c2,2.5,4.9,3.7,8.6,3.7C161.9,251.9,164.8,250.6,166.8,248.1z
			"/>
	</g>
</g>
</svg>
