<?xml version="1.0" encoding="utf-8"?>
<!-- Generator: Adobe Illustrator 25.2.0, SVG Export Plug-In . SVG Version: 6.00 Build 0)  -->
<svg version="1.1" id="Layer_1" xmlns="http://www.w3.org/2000/svg" xmlns:xlink="http://www.w3.org/1999/xlink" x="0px" y="0px"
	 viewBox="0 0 323 525.1" style="enable-background:new 0 0 323 525.1;" xml:space="preserve">
<style type="text/css">
	.st0{fill:#FFA300;}
	.st1{fill:#FFFFFF;}
	.st2{fill:none;stroke:#FFA300;stroke-width:10;stroke-linecap:round;stroke-miterlimit:10;}
	.st3{fill:none;stroke:#FFFFFF;stroke-width:4;stroke-linecap:round;stroke-miterlimit:10;}
</style>
<g>
	
		<image style="overflow:visible;opacity:0.5;enable-background:new    ;" width="1279" height="1788" xlink:href="2C486872.png"  transform="matrix(0.2395 0 0 0.2395 8.3805 48.356)">
	</image>
	<g>
		<path class="st0" d="M270.4,461.2H52.6c-16.2,0-29.4-13.2-29.4-29.4V93.2c0-16.2,13.2-29.4,29.4-29.4h217.7
			c16.2,0,29.4,13.2,29.4,29.4v338.6C299.8,448.1,286.6,461.2,270.4,461.2z"/>
	</g>
</g>
<ellipse transform="matrix(0.8005 -0.5993 0.5993 0.8005 -125.995 149.4603)" class="st1" cx="161.5" cy="264" rx="160.3" ry="86.7"/>
<g>
	<g>
		<g>
			<line class="st2" x1="206.5" y1="239.3" x2="155.1" y2="283.1"/>
			<g>
				<polygon class="st0" points="185.2,225.4 233.3,216.6 216.9,262.6 				"/>
			</g>
		</g>
	</g>
	<g>
		<g>
			<line class="st2" x1="116.5" y1="285.8" x2="168.4" y2="241.6"/>
			<g>
				<polygon class="st0" points="137.8,299.7 89.7,308.5 106.1,262.5 				"/>
			</g>
		</g>
	</g>
</g>
<g>
	<g>
		<g>
			<line class="st3" x1="84.6" y1="94.7" x2="66.5" y2="110.1"/>
			<g>
				<polygon class="st1" points="76.1,89.1 95.3,85.6 88.8,104 				"/>
			</g>
		</g>
	</g>
	<g>
		<g>
			<line class="st3" x1="53.2" y1="110.3" x2="71.5" y2="94.8"/>
			<g>
				<polygon class="st1" points="61.7,115.9 42.5,119.5 49,101.1 				"/>
			</g>
		</g>
	</g>
</g>
<g>
	<g>
		<g>
			<line class="st3" x1="268" y1="412" x2="249.9" y2="427.3"/>
			<g>
				<polygon class="st1" points="259.5,406.4 278.7,402.8 272.2,421.2 				"/>
			</g>
		</g>
	</g>
	<g>
		<g>
			<line class="st3" x1="236.6" y1="427.6" x2="254.9" y2="412.1"/>
			<g>
				<polygon class="st1" points="245.1,433.2 225.9,436.7 232.4,418.3 				"/>
			</g>
		</g>
	</g>
</g>
</svg>
