<?xml version="1.0" encoding="utf-8"?>
<!-- Generator: Adobe Illustrator 25.2.0, SVG Export Plug-In . SVG Version: 6.00 Build 0)  -->
<svg version="1.1" id="Layer_1" xmlns="http://www.w3.org/2000/svg" xmlns:xlink="http://www.w3.org/1999/xlink" x="0px" y="0px"
	 viewBox="0 0 323 525.1" style="enable-background:new 0 0 323 525.1;" xml:space="preserve">
<style type="text/css">
	.st0{fill:#1C840D;}
	.st1{fill:#FFFFFF;}
</style>
<g>
	
		<image style="overflow:visible;opacity:0.5;enable-background:new    ;" width="1279" height="1788" xlink:href="E656BCBD.png"  transform="matrix(0.2395 0 0 0.2395 8.3805 48.356)">
	</image>
	<g>
		<path class="st0" d="M270.4,461.2H52.6c-16.2,0-29.4-13.2-29.4-29.4V93.2c0-16.2,13.2-29.4,29.4-29.4h217.7
			c16.2,0,29.4,13.2,29.4,29.4v338.6C299.8,448.1,286.6,461.2,270.4,461.2z"/>
	</g>
</g>
<ellipse transform="matrix(0.8005 -0.5993 0.5993 0.8005 -125.995 149.4603)" class="st1" cx="161.5" cy="264" rx="160.3" ry="86.7"/>
<g>
	<g>
		<path class="st1" d="M63.2,148.9c-2.7-1.4-4.8-3.3-6.3-5.8s-2.2-5.4-2.2-8.7v-1c0-3,0.7-5.7,2.2-8.3c1.5-2.6,3.5-4.6,5.9-5.9
			c-2.1-1.1-3.8-2.8-5-4.9s-1.9-4.4-1.9-6.8v-1.4c0-3.1,0.7-5.8,2.1-8.2c1.4-2.3,3.3-4.2,5.9-5.5c2.5-1.3,5.5-1.9,8.8-1.9
			s6.3,0.6,8.8,1.9s4.5,3.1,5.9,5.5c1.4,2.3,2.1,5.1,2.1,8.2v1.4c0,2.4-0.6,4.7-1.9,6.9c-1.3,2.1-3,3.8-5.1,4.9
			c2.5,1.4,4.5,3.3,6,5.9s2.3,5.4,2.3,8.3v1c0,3.3-0.7,6.2-2.2,8.7s-3.6,4.4-6.3,5.8c-2.7,1.4-5.9,2-9.4,2
			C69.1,151,65.9,150.3,63.2,148.9z M77.8,141.8c1.5-0.8,2.6-1.8,3.4-3.2s1.2-3,1.2-4.7v-0.6c0-1.8-0.4-3.4-1.2-4.8
			c-0.8-1.4-1.9-2.4-3.4-3.2c-1.5-0.8-3.2-1.1-5.1-1.1s-3.6,0.4-5.1,1.1c-1.5,0.8-2.6,1.8-3.4,3.2s-1.2,3-1.2,4.8v0.6
			c0,1.8,0.4,3.4,1.2,4.7c0.8,1.4,1.9,2.4,3.4,3.2c1.5,0.7,3.2,1.1,5.1,1.1C74.6,143,76.3,142.6,77.8,141.8z M77.1,115.1
			c1.3-0.7,2.3-1.7,3-3.1c0.7-1.3,1.1-2.9,1.1-4.6v-0.6c0-1.7-0.4-3.1-1.1-4.4s-1.7-2.3-3-3s-2.7-1-4.4-1c-1.7,0-3.1,0.3-4.4,1
			s-2.3,1.7-3,3s-1.1,2.8-1.1,4.4v0.6c0,1.7,0.4,3.2,1.1,4.5s1.7,2.3,3,3.1c1.3,0.7,2.7,1.1,4.4,1.1
			C74.3,116.2,75.8,115.9,77.1,115.1z"/>
	</g>
</g>
<g>
	<g>
		<path class="st1" d="M245.1,428.6c-2.7-1.4-4.8-3.3-6.3-5.8s-2.2-5.4-2.2-8.7v-1c0-3,0.7-5.7,2.2-8.3c1.5-2.6,3.5-4.6,5.9-5.9
			c-2.1-1.1-3.8-2.8-5-4.9c-1.3-2.2-1.9-4.4-1.9-6.8v-1.4c0-3.1,0.7-5.8,2.1-8.2s3.3-4.2,5.9-5.5c2.5-1.3,5.5-1.9,8.8-1.9
			c3.3,0,6.3,0.6,8.8,1.9s4.5,3.1,5.9,5.5s2.1,5.1,2.1,8.2v1.4c0,2.4-0.6,4.7-1.9,6.9c-1.3,2.1-3,3.8-5.1,4.9c2.5,1.4,4.5,3.3,6,5.9
			s2.3,5.4,2.3,8.3v1c0,3.3-0.7,6.2-2.2,8.7s-3.6,4.4-6.3,5.8c-2.7,1.4-5.9,2-9.4,2C251,430.6,247.8,429.9,245.1,428.6z
			 M259.7,421.5c1.5-0.8,2.6-1.8,3.4-3.2c0.8-1.4,1.2-3,1.2-4.7V413c0-1.8-0.4-3.4-1.2-4.8c-0.8-1.4-1.9-2.4-3.4-3.2
			c-1.5-0.8-3.2-1.1-5.1-1.1s-3.6,0.4-5.1,1.1c-1.5,0.8-2.6,1.8-3.4,3.2s-1.2,3-1.2,4.8v0.6c0,1.8,0.4,3.4,1.2,4.7
			c0.8,1.4,1.9,2.4,3.4,3.2c1.5,0.7,3.2,1.1,5.1,1.1C256.5,422.6,258.2,422.2,259.7,421.5z M259,394.8c1.3-0.7,2.3-1.7,3-3.1
			c0.7-1.3,1.1-2.9,1.1-4.6v-0.6c0-1.7-0.4-3.1-1.1-4.4s-1.7-2.3-3-3s-2.7-1-4.4-1c-1.7,0-3.1,0.3-4.4,1c-1.3,0.7-2.3,1.7-3,3
			s-1.1,2.8-1.1,4.4v0.6c0,1.7,0.4,3.2,1.1,4.5s1.7,2.3,3,3.1c1.3,0.7,2.7,1.1,4.4,1.1C256.2,395.9,257.7,395.5,259,394.8z"/>
	</g>
</g>
<g>
	<g>
		<path class="st0" d="M147.7,295.1c-3.9-1.9-6.8-4.7-8.9-8.2c-2.1-3.5-3.1-7.6-3.1-12.3v-1.4c0-4.2,1-8.1,3.1-11.8
			c2.1-3.7,4.9-6.5,8.4-8.4c-3-1.6-5.3-4-7.1-7c-1.8-3.1-2.7-6.3-2.7-9.7v-2c0-4.4,1-8.3,2.9-11.6c2-3.3,4.7-5.9,8.3-7.7
			s7.7-2.7,12.5-2.7c4.7,0,8.9,0.9,12.5,2.7s6.4,4.4,8.3,7.7c2,3.3,2.9,7.2,2.9,11.6v2c0,3.5-0.9,6.7-2.7,9.8
			c-1.8,3-4.2,5.4-7.2,6.9c3.5,1.9,6.4,4.7,8.5,8.4c2.1,3.7,3.2,7.6,3.2,11.8v1.4c0,4.7-1,8.8-3.1,12.3s-5.1,6.2-8.9,8.2
			c-3.9,1.9-8.3,2.9-13.4,2.9C156,298,151.6,297,147.7,295.1z M168.4,285c2.1-1.1,3.7-2.6,4.8-4.5s1.7-4.2,1.7-6.7V273
			c0-2.6-0.6-4.8-1.7-6.8c-1.1-1.9-2.7-3.5-4.8-4.5c-2.1-1.1-4.5-1.6-7.2-1.6s-5.1,0.5-7.2,1.6c-2.1,1.1-3.7,2.6-4.8,4.6
			s-1.7,4.2-1.7,6.8v0.9c0,2.5,0.6,4.8,1.7,6.7c1.1,1.9,2.7,3.4,4.8,4.5s4.5,1.6,7.2,1.6C163.9,286.6,166.3,286.1,168.4,285z
			 M167.4,247.2c1.8-1,3.2-2.5,4.2-4.4s1.5-4.1,1.5-6.5v-0.8c0-2.3-0.5-4.4-1.5-6.2s-2.4-3.2-4.2-4.2s-3.9-1.5-6.2-1.5
			s-4.4,0.5-6.2,1.5s-3.2,2.4-4.2,4.2s-1.5,3.9-1.5,6.3v0.9c0,2.4,0.5,4.6,1.5,6.4c1,1.9,2.4,3.3,4.2,4.3s3.9,1.5,6.2,1.5
			S165.6,248.2,167.4,247.2z"/>
	</g>
</g>
</svg>
