<?xml version="1.0" encoding="utf-8"?>
<!-- Generator: Adobe Illustrator 25.2.0, SVG Export Plug-In . SVG Version: 6.00 Build 0)  -->
<svg version="1.1" id="Layer_1" xmlns="http://www.w3.org/2000/svg" xmlns:xlink="http://www.w3.org/1999/xlink" x="0px" y="0px"
	 viewBox="0 0 323 525.1" style="enable-background:new 0 0 323 525.1;" xml:space="preserve">
<style type="text/css">
	.st0{fill:#1C840D;}
	.st1{fill:#FFFFFF;}
	.st2{fill:none;stroke:#1C840D;stroke-width:14;stroke-miterlimit:10;}
	.st3{fill:none;stroke:#FFFFFF;stroke-width:7;stroke-miterlimit:10;}
</style>
<g>
	
		<image style="overflow:visible;opacity:0.5;enable-background:new    ;" width="1279" height="1788" xlink:href="2C486872.png"  transform="matrix(0.2395 0 0 0.2395 8.3805 48.356)">
	</image>
	<g>
		<path class="st0" d="M270.4,461.2H52.6c-16.2,0-29.4-13.2-29.4-29.4V93.2c0-16.2,13.2-29.4,29.4-29.4h217.7
			c16.2,0,29.4,13.2,29.4,29.4v338.6C299.8,448.1,286.6,461.2,270.4,461.2z"/>
	</g>
</g>
<ellipse transform="matrix(0.8005 -0.5993 0.5993 0.8005 -125.995 149.4603)" class="st1" cx="161.5" cy="264" rx="160.3" ry="86.7"/>
<g>
	<circle class="st2" cx="161.5" cy="262.5" r="46.6"/>
	<line class="st2" x1="127" y1="293.8" x2="196" y2="231.3"/>
</g>
<g>
	<circle class="st3" cx="252.5" cy="413.8" r="21.2"/>
	<line class="st3" x1="236.7" y1="428" x2="268.2" y2="399.6"/>
</g>
<g>
	<circle class="st3" cx="64.9" cy="105.8" r="21.2"/>
	<line class="st3" x1="49.1" y1="120" x2="80.6" y2="91.5"/>
</g>
</svg>
