<?xml version="1.0" encoding="utf-8"?>
<!-- Generator: Adobe Illustrator 25.2.0, SVG Export Plug-In . SVG Version: 6.00 Build 0)  -->
<svg version="1.1" id="Layer_1" xmlns="http://www.w3.org/2000/svg" xmlns:xlink="http://www.w3.org/1999/xlink" x="0px" y="0px"
	 viewBox="0 0 323 525.1" style="enable-background:new 0 0 323 525.1;" xml:space="preserve">
<style type="text/css">
	.st0{fill:#FFFFFF;}
	.st1{fill:#E32027;}
	.st2{fill:#E32027;stroke:#FFFFFF;stroke-width:4;stroke-miterlimit:10;}
	.st3{fill:#3F52A4;}
	.st4{fill:none;stroke:#FFFFFF;stroke-width:4;stroke-miterlimit:10;}
	.st5{fill:#FFA300;}
	.st6{fill:#FFA300;stroke:#FFFFFF;stroke-width:4;stroke-miterlimit:10;}
	.st7{fill:#1C840D;}
	.st8{fill:#1C840D;stroke:#FFFFFF;stroke-width:4;stroke-miterlimit:10;}
</style>
<g>
	
		<image style="overflow:visible;opacity:0.5;enable-background:new    ;" width="1279" height="1788" xlink:href="2C486872.png"  transform="matrix(0.2395 0 0 0.2395 8.3805 48.356)">
	</image>
	<g>
		<path d="M270.4,461.2H52.6c-16.2,0-29.4-13.2-29.4-29.4V93.2c0-16.2,13.2-29.4,29.4-29.4h217.7c16.2,0,29.4,13.2,29.4,29.4v338.6
			C299.8,448.1,286.6,461.2,270.4,461.2z"/>
	</g>
</g>
<ellipse transform="matrix(0.8005 -0.5993 0.5993 0.8005 -126.0046 149.4543)" class="st0" cx="161.5" cy="264" rx="160.3" ry="86.7"/>
<g>
	<g>
		
			<image style="overflow:visible;enable-background:new    ;" width="82" height="129" xlink:href="6F6316BA.png"  transform="matrix(0.881 0 0 0.881 100.05 198.501)">
		</image>
		<g>
			<path class="st1" d="M157.2,304.6h-41.9c-4.4,0-7.9-3.5-7.9-7.9v-82.7c0-4.4,3.5-7.9,7.9-7.9h41.9c4.4,0,7.9,3.5,7.9,7.9v82.7
				C165.2,301,161.6,304.6,157.2,304.6z"/>
			<path class="st2" d="M157.2,304.6h-41.9c-4.4,0-7.9-3.5-7.9-7.9v-82.7c0-4.4,3.5-7.9,7.9-7.9h41.9c4.4,0,7.9,3.5,7.9,7.9v82.7
				C165.2,301,161.6,304.6,157.2,304.6z"/>
		</g>
	</g>
</g>
<g>
	
		<image style="overflow:visible;enable-background:new    ;" width="82" height="129" xlink:href="6F6316BD.png"  transform="matrix(0.881 0 0 0.881 129.1231 179.1189)">
	</image>
	<g>
		<path class="st3" d="M186.1,285.1h-41.9c-4.4,0-7.9-3.5-7.9-7.9v-82.7c0-4.4,3.5-7.9,7.9-7.9h41.9c4.4,0,7.9,3.5,7.9,7.9v82.7
			C194.1,281.6,190.4,285.1,186.1,285.1z"/>
		<path class="st4" d="M186.1,285.1h-41.9c-4.4,0-7.9-3.5-7.9-7.9v-82.7c0-4.4,3.5-7.9,7.9-7.9h41.9c4.4,0,7.9,3.5,7.9,7.9v82.7
			C194.1,281.6,190.4,285.1,186.1,285.1z"/>
	</g>
</g>
<g>
	<g>
		
			<image style="overflow:visible;enable-background:new    ;" width="82" height="129" xlink:href="6F6316BA.png"  transform="matrix(0.881 0 0 0.881 121.6346 232.3316)">
		</image>
		<g>
			<path class="st5" d="M178.8,338.4h-41.9c-4.4,0-7.9-3.5-7.9-7.9v-82.7c0-4.4,3.5-7.9,7.9-7.9h41.9c4.4,0,7.9,3.5,7.9,7.9v82.7
				C186.7,334.9,183.2,338.4,178.8,338.4z"/>
			<path class="st6" d="M178.8,338.4h-41.9c-4.4,0-7.9-3.5-7.9-7.9v-82.7c0-4.4,3.5-7.9,7.9-7.9h41.9c4.4,0,7.9,3.5,7.9,7.9v82.7
				C186.7,334.9,183.2,338.4,178.8,338.4z"/>
		</g>
	</g>
</g>
<g>
	
		<image style="overflow:visible;enable-background:new    ;" width="82" height="129" xlink:href="6F6316BD.png"  transform="matrix(0.881 0 0 0.881 150.7077 212.9495)">
	</image>
	<g>
		<path class="st7" d="M207.7,318.9h-41.9c-4.4,0-7.9-3.5-7.9-7.9v-82.7c0-4.4,3.5-7.9,7.9-7.9h41.9c4.4,0,7.9,3.5,7.9,7.9V311
			C215.6,315.4,212,318.9,207.7,318.9z"/>
		<path class="st8" d="M207.7,318.9h-41.9c-4.4,0-7.9-3.5-7.9-7.9v-82.7c0-4.4,3.5-7.9,7.9-7.9h41.9c4.4,0,7.9,3.5,7.9,7.9V311
			C215.6,315.4,212,318.9,207.7,318.9z"/>
	</g>
</g>
<g>
	<g>
		<path class="st0" d="M67.9,108.2v5.4H45.2v-5.4H67.9z M59.4,122.2h-5.7V99.6h5.7V122.2z"/>
		<path class="st0" d="M75.1,118.4l13.6-29.4h5.9l-13.3,29h19.9v5.3H75.1V118.4z M92.6,105.8h5.5v23.9h-5.5V105.8z"/>
	</g>
</g>
<g>
	<g>
		<path class="st0" d="M245.4,411.6v5.4h-22.6v-5.4H245.4z M236.9,425.6h-5.7V403h5.7V425.6z"/>
		<path class="st0" d="M252.7,421.8l13.6-29.4h5.9l-13.3,29h19.9v5.3h-26.1V421.8z M270.1,409.2h5.5V433h-5.5V409.2z"/>
	</g>
</g>
</svg>
