<?xml version="1.0" encoding="utf-8"?>
<!-- Generator: Adobe Illustrator 25.2.0, SVG Export Plug-In . SVG Version: 6.00 Build 0)  -->
<svg version="1.1" id="Layer_1" xmlns="http://www.w3.org/2000/svg" xmlns:xlink="http://www.w3.org/1999/xlink" x="0px" y="0px"
	 viewBox="0 0 323 525.1" style="enable-background:new 0 0 323 525.1;" xml:space="preserve">
<style type="text/css">
	.st0{fill:#3F52A4;}
	.st1{fill:#E41E25;}
	.st2{fill:#FFA300;}
	.st3{fill:#1C840D;}
</style>
<g>
	
		<image style="overflow:visible;opacity:0.5;enable-background:new    ;" width="1279" height="1788" xlink:href="2C486872.png"  transform="matrix(0.2395 0 0 0.2395 8.3805 48.356)">
	</image>
	<g>
		<path d="M270.4,461.2H52.6c-16.2,0-29.4-13.2-29.4-29.4V93.2c0-16.2,13.2-29.4,29.4-29.4h217.7c16.2,0,29.4,13.2,29.4,29.4v338.6
			C299.8,448.1,286.6,461.2,270.4,461.2z"/>
	</g>
</g>
<g>
	<path class="st0" d="M109.5,194.1c70.9-53.1,151.6-65,180.3-26.7l-128.3,91.3L109.5,194.1z"/>
	<path class="st1" d="M160.5,258.8L32.2,358.6c-28.7-38.3,6.5-111.4,77.4-164.5L160.5,258.8z"/>
	<path class="st2" d="M160.5,258.8l52.9,73.2c-70.9,53.1-151.6,65-180.3,26.7L160.5,258.8z"/>
	<path class="st3" d="M289.8,166.5c28.7,38.3-5.5,112.4-76.4,165.5l-52.9-73.2L289.8,166.5z"/>
</g>
<g>
	<path class="st0" d="M64.1,93.2c16.9-12.7,36.2-15.5,43-6.4l-30.6,21.8L64.1,93.2z"/>
	<path class="st1" d="M76.2,108.6l-30.6,23.8c-6.9-9.2,1.5-26.6,18.5-39.3L76.2,108.6z"/>
	<path class="st2" d="M76.2,108.6l12.6,17.5c-16.9,12.7-36.2,15.5-43,6.4L76.2,108.6z"/>
	<path class="st3" d="M107.1,86.6c6.9,9.2-1.3,26.8-18.2,39.5l-12.6-17.5L107.1,86.6z"/>
</g>
<g>
	<path class="st0" d="M244.6,397.1c16.9-12.7,36.2-15.5,43-6.4L257,412.6L244.6,397.1z"/>
	<path class="st1" d="M256.7,412.6l-30.6,23.8c-6.9-9.2,1.5-26.6,18.5-39.3L256.7,412.6z"/>
	<path class="st2" d="M256.7,412.6l12.6,17.5c-16.9,12.7-36.2,15.5-43,6.4L256.7,412.6z"/>
	<path class="st3" d="M287.6,390.5c6.9,9.2-1.3,26.8-18.2,39.5l-12.6-17.5L287.6,390.5z"/>
</g>
</svg>
