<?xml version="1.0" encoding="utf-8"?>
<!-- Generator: Adobe Illustrator 25.2.0, SVG Export Plug-In . SVG Version: 6.00 Build 0)  -->
<svg version="1.1" id="Layer_1" xmlns="http://www.w3.org/2000/svg" xmlns:xlink="http://www.w3.org/1999/xlink" x="0px" y="0px"
	 viewBox="0 0 323 525.1" style="enable-background:new 0 0 323 525.1;" xml:space="preserve">
<style type="text/css">
	.st0{fill:#E41E25;}
	.st1{fill:#FFFFFF;}
</style>
<g>
	
		<image style="overflow:visible;opacity:0.5;" width="1279" height="1782" xlink:href="CFF26EBC.png"  transform="matrix(0.24 0 0 0.24 8.04 48.6)">
	</image>
	<g>
		<path class="st0" d="M270.4,461.2H52.6c-16.2,0-29.4-13.2-29.4-29.4V93.2c0-16.2,13.2-29.4,29.4-29.4h217.7
			c16.2,0,29.4,13.2,29.4,29.4v338.6C299.8,448.1,286.6,461.2,270.4,461.2z"/>
	</g>
</g>
<ellipse transform="matrix(0.8005 -0.5993 0.5993 0.8005 -125.9813 149.4488)" class="st1" cx="161.5" cy="264" rx="160.3" ry="86.7"/>
<g>
	<g>
		<path class="st1" d="M59.6,146.5c-2.9-3-4.3-7.1-4.3-12.4v-26.9c0-5.3,1.4-9.5,4.3-12.4c2.9-2.9,7.1-4.4,12.6-4.4
			c5.5,0,9.7,1.5,12.6,4.4c2.9,2.9,4.3,7.1,4.3,12.4v26.9c0,5.3-1.4,9.5-4.3,12.4c-2.9,2.9-7.1,4.4-12.6,4.4
			C66.7,151,62.5,149.5,59.6,146.5z M78.7,140.8c1.4-1.5,2.1-3.7,2.1-6.6v-26.9c0-2.9-0.7-5.1-2.1-6.6c-1.4-1.5-3.6-2.3-6.5-2.3
			c-3,0-5.1,0.8-6.5,2.3c-1.4,1.5-2.1,3.7-2.1,6.6v26.9c0,2.9,0.7,5.1,2.1,6.6c1.4,1.5,3.6,2.3,6.5,2.3
			C75.2,143.1,77.3,142.3,78.7,140.8z"/>
	</g>
</g>
<g>
	<g>
		<path class="st1" d="M241.5,426.2c-2.9-3-4.3-7.1-4.3-12.4v-26.9c0-5.3,1.4-9.5,4.3-12.4c2.9-2.9,7.1-4.4,12.6-4.4
			c5.5,0,9.7,1.5,12.6,4.4c2.9,2.9,4.3,7.1,4.3,12.4v26.9c0,5.3-1.4,9.5-4.3,12.4c-2.9,2.9-7.1,4.4-12.6,4.4
			C248.6,430.6,244.4,429.1,241.5,426.2z M260.6,420.4c1.4-1.5,2.1-3.7,2.1-6.6v-26.9c0-2.9-0.7-5.1-2.1-6.6
			c-1.4-1.5-3.6-2.3-6.5-2.3c-3,0-5.1,0.8-6.5,2.3c-1.4,1.5-2.1,3.7-2.1,6.6v26.9c0,2.9,0.7,5.1,2.1,6.6c1.4,1.5,3.6,2.3,6.5,2.3
			C257.1,422.7,259.2,421.9,260.6,420.4z"/>
	</g>
</g>
<g>
	<g>
		<path class="st0" d="M143.6,291.7c-4.1-4.2-6.1-10.1-6.1-17.6v-38.2c0-7.5,2-13.4,6.1-17.6c4.1-4.2,10-6.3,17.9-6.3
			c7.9,0,13.8,2.1,17.9,6.2c4.1,4.2,6.1,10,6.1,17.6v38.2c0,7.5-2,13.4-6.1,17.6c-4.1,4.2-10,6.3-17.9,6.3
			C153.7,298,147.7,295.9,143.6,291.7z M170.7,283.5c2-2.2,3-5.3,3-9.4v-38.2c0-4.1-1-7.2-2.9-9.4c-2-2.2-5-3.3-9.2-3.3
			c-4.2,0-7.3,1.1-9.2,3.3c-2,2.2-2.9,5.3-2.9,9.4v38.2c0,4.1,1,7.2,3,9.4c2,2.2,5.1,3.3,9.2,3.3
			C165.7,286.8,168.7,285.7,170.7,283.5z"/>
	</g>
</g>
</svg>
