<?xml version="1.0" encoding="utf-8"?>
<!-- Generator: Adobe Illustrator 25.2.0, SVG Export Plug-In . SVG Version: 6.00 Build 0)  -->
<svg version="1.1" id="Layer_1" xmlns="http://www.w3.org/2000/svg" xmlns:xlink="http://www.w3.org/1999/xlink" x="0px" y="0px"
	 viewBox="0 0 323 525.1" style="enable-background:new 0 0 323 525.1;" xml:space="preserve">
<style type="text/css">
	.st0{fill:#E41E25;}
	.st1{fill:#FFFFFF;}
</style>
<g>
	
		<image style="overflow:visible;opacity:0.5;" width="1279" height="1782" xlink:href="8A00C304.png"  transform="matrix(0.24 0 0 0.24 8.04 48.6)">
	</image>
	<g>
		<path class="st0" d="M270.4,461.2H52.6c-16.2,0-29.4-13.2-29.4-29.4V93.2c0-16.2,13.2-29.4,29.4-29.4h217.7
			c16.2,0,29.4,13.2,29.4,29.4v338.6C299.8,448.1,286.6,461.2,270.4,461.2z"/>
	</g>
</g>
<ellipse transform="matrix(0.8005 -0.5993 0.5993 0.8005 -125.9813 149.4488)" class="st1" cx="161.5" cy="264" rx="160.3" ry="86.7"/>
<g>
	<g>
		<path class="st1" d="M54.4,143.1l20.6-27.5c1.2-1.6,2.1-3.2,2.8-4.9c0.7-1.7,1-3.3,1-4.7v-0.1c0-2.4-0.7-4.2-2.1-5.5
			c-1.4-1.3-3.4-2-5.9-2c-2.4,0-4.4,0.7-5.9,2.1c-1.5,1.4-2.4,3.4-2.7,6v0h-8.6v0c0.5-3.4,1.5-6.3,3-8.7c1.5-2.4,3.5-4.2,5.8-5.5
			c2.4-1.3,5.1-1.9,8.3-1.9c3.5,0,6.5,0.6,9,1.8c2.5,1.2,4.4,3,5.7,5.3c1.3,2.3,2,5.1,2,8.3v0c0,2.1-0.4,4.3-1.3,6.6
			c-0.9,2.3-2.1,4.5-3.6,6.6l-17.1,23.3h22.4v7.9H54.4V143.1z"/>
	</g>
</g>
<g>
	<g>
		<path class="st1" d="M236.3,422.8l20.6-27.5c1.2-1.6,2.1-3.2,2.8-4.9c0.7-1.7,1-3.3,1-4.7v-0.1c0-2.4-0.7-4.2-2.1-5.5
			s-3.4-2-5.9-2c-2.4,0-4.4,0.7-5.9,2.1c-1.5,1.4-2.4,3.4-2.7,6v0h-8.6v0c0.5-3.4,1.5-6.3,3-8.7c1.5-2.4,3.5-4.2,5.8-5.5
			c2.4-1.3,5.1-1.9,8.3-1.9c3.5,0,6.5,0.6,9,1.8c2.5,1.2,4.4,3,5.7,5.3c1.3,2.3,2,5.1,2,8.3v0c0,2.1-0.4,4.3-1.3,6.6
			c-0.9,2.3-2.1,4.5-3.6,6.6l-17.1,23.3h22.4v7.9h-33.4V422.8z"/>
	</g>
</g>
<g>
	<g>
		<path class="st0" d="M138.3,286.9l29.3-39.1c1.7-2.2,3-4.6,4-7c0.9-2.4,1.4-4.7,1.4-6.7V234c0-3.4-1-6-2.9-7.8
			c-2-1.8-4.8-2.8-8.4-2.8c-3.4,0-6.2,1-8.3,3c-2.1,2-3.4,4.9-3.9,8.6v0.1h-12.2v-0.1c0.7-4.8,2.1-8.9,4.2-12.3
			c2.1-3.4,4.9-6,8.3-7.8c3.4-1.8,7.3-2.7,11.7-2.7c5,0,9.3,0.9,12.8,2.6c3.5,1.7,6.2,4.2,8.1,7.5c1.8,3.3,2.8,7.2,2.8,11.8v0.1
			c0,3-0.6,6.1-1.8,9.3c-1.2,3.2-2.9,6.4-5.1,9.4l-24.3,33h31.8v11.2h-47.4V286.9z"/>
	</g>
</g>
</svg>
