<?xml version="1.0" encoding="utf-8"?>
<!-- Generator: Adobe Illustrator 25.2.0, SVG Export Plug-In . SVG Version: 6.00 Build 0)  -->
<svg version="1.1" id="Layer_1" xmlns="http://www.w3.org/2000/svg" xmlns:xlink="http://www.w3.org/1999/xlink" x="0px" y="0px"
	 viewBox="0 0 323 525.1" style="enable-background:new 0 0 323 525.1;" xml:space="preserve">
<style type="text/css">
	.st0{fill:#E41E25;}
	.st1{fill:#FFFFFF;}
</style>
<g>
	
		<image style="overflow:visible;opacity:0.5;" width="1279" height="1782" xlink:href="B82BBFE0.png"  transform="matrix(0.24 0 0 0.24 8.04 48.6)">
	</image>
	<g>
		<path class="st0" d="M270.4,461.2H52.6c-16.2,0-29.4-13.2-29.4-29.4V93.2c0-16.2,13.2-29.4,29.4-29.4h217.7
			c16.2,0,29.4,13.2,29.4,29.4v338.6C299.8,448.1,286.6,461.2,270.4,461.2z"/>
	</g>
</g>
<ellipse transform="matrix(0.8005 -0.5993 0.5993 0.8005 -125.9813 149.4488)" class="st1" cx="161.5" cy="264" rx="160.3" ry="86.7"/>
<g>
	<g>
		<path class="st1" d="M63.9,149.2c-2.3-1.2-4.2-2.9-5.7-5.1c-1.5-2.2-2.4-4.9-2.9-8v0h8.3v0c0.3,2.2,1.2,3.9,2.6,5.1
			c1.4,1.2,3.3,1.8,5.6,1.8c2.7,0,4.7-0.9,6.2-2.7c1.5-1.8,2.2-4.3,2.2-7.5v-5c0-3.2-0.7-5.7-2.2-7.5c-1.5-1.8-3.5-2.7-6.2-2.7
			c-1.4,0-2.8,0.4-4.2,1.2c-1.3,0.8-2.5,2-3.5,3.4h-7.6V91.1h30.2V99H64.9v13.3c1-0.8,2.2-1.5,3.5-2c1.3-0.5,2.6-0.7,3.9-0.7
			c3.4,0,6.3,0.7,8.8,2.1c2.4,1.4,4.3,3.5,5.5,6.2c1.3,2.7,1.9,6,1.9,9.8v5c0,3.8-0.7,7.1-2,9.8c-1.3,2.7-3.2,4.8-5.7,6.2
			c-2.5,1.4-5.5,2.1-9,2.1C68.9,151,66.2,150.4,63.9,149.2z"/>
	</g>
</g>
<g>
	<g>
		<path class="st1" d="M245.8,428.8c-2.3-1.2-4.2-2.9-5.7-5.1c-1.5-2.2-2.4-4.9-2.9-8v0h8.3v0c0.3,2.2,1.2,3.9,2.6,5.1
			c1.4,1.2,3.3,1.8,5.6,1.8c2.7,0,4.7-0.9,6.2-2.7c1.5-1.8,2.2-4.3,2.2-7.5v-5c0-3.2-0.7-5.7-2.2-7.5c-1.5-1.8-3.5-2.7-6.2-2.7
			c-1.4,0-2.8,0.4-4.2,1.2c-1.3,0.8-2.5,2-3.5,3.4h-7.6v-31.2h30.2v7.9h-21.9V392c1-0.8,2.2-1.5,3.5-2c1.3-0.5,2.6-0.7,3.9-0.7
			c3.4,0,6.3,0.7,8.8,2.1c2.4,1.4,4.3,3.5,5.5,6.2c1.3,2.7,1.9,6,1.9,9.8v5c0,3.8-0.7,7.1-2,9.8c-1.3,2.7-3.2,4.8-5.7,6.2
			c-2.5,1.4-5.5,2.1-9,2.1C250.8,430.6,248.1,430,245.8,428.8z"/>
	</g>
</g>
<g>
	<g>
		<path class="st0" d="M148.7,295.5c-3.3-1.7-6-4.1-8-7.2c-2.1-3.2-3.4-7-4.1-11.4v-0.1h11.8v0.1c0.4,3.1,1.7,5.5,3.7,7.2
			c2,1.7,4.7,2.6,8,2.6c3.8,0,6.7-1.3,8.8-3.8c2.1-2.5,3.1-6.1,3.1-10.7v-7c0-4.5-1-8.1-3.1-10.6c-2.1-2.5-5-3.8-8.8-3.8
			c-2,0-4,0.6-5.9,1.7c-1.9,1.2-3.5,2.8-5,4.9h-10.7v-44.3h42.8v11.2h-31v18.9c1.5-1.2,3.1-2.1,4.9-2.8c1.8-0.7,3.7-1,5.5-1
			c4.9,0,9,1,12.4,3c3.4,2,6.1,4.9,7.9,8.8c1.8,3.9,2.7,8.5,2.7,13.9v7c0,5.4-0.9,10.1-2.8,13.9c-1.8,3.9-4.5,6.8-8.1,8.8
			c-3.5,2-7.8,3-12.8,3C155.7,298,152,297.1,148.7,295.5z"/>
	</g>
</g>
</svg>
