<?xml version="1.0" encoding="utf-8"?>
<!-- Generator: Adobe Illustrator 25.2.0, SVG Export Plug-In . SVG Version: 6.00 Build 0)  -->
<svg version="1.1" id="Layer_1" xmlns="http://www.w3.org/2000/svg" xmlns:xlink="http://www.w3.org/1999/xlink" x="0px" y="0px"
	 viewBox="0 0 323 525.1" style="enable-background:new 0 0 323 525.1;" xml:space="preserve">
<style type="text/css">
	.st0{fill:#E41E25;}
	.st1{fill:#FFFFFF;}
</style>
<g>
	
		<image style="overflow:visible;opacity:0.5;" width="1279" height="1782" xlink:href="723A142B.png"  transform="matrix(0.24 0 0 0.24 8.04 48.6)">
	</image>
	<g>
		<path class="st0" d="M270.4,461.2H52.6c-16.2,0-29.4-13.2-29.4-29.4V93.2c0-16.2,13.2-29.4,29.4-29.4h217.7
			c16.2,0,29.4,13.2,29.4,29.4v338.6C299.8,448.1,286.6,461.2,270.4,461.2z"/>
	</g>
</g>
<ellipse transform="matrix(0.8005 -0.5993 0.5993 0.8005 -125.9813 149.4488)" class="st1" cx="161.5" cy="264" rx="160.3" ry="86.7"/>
<g>
	<g>
		<path class="st1" d="M61.7,148.9c-2.5-1.4-4.4-3.4-5.6-6.1c-1.3-2.7-1.9-5.9-1.9-9.7v0c0-2.2,0.3-4.5,0.8-6.9
			c0.5-2.4,1.3-4.8,2.2-7.1c0.2-0.4,0.3-0.8,0.5-1.2c0.2-0.4,0.4-0.8,0.6-1.2l12.9-25.5h9l-15.1,29.5l0-1.5c0.7-1.3,1.7-2.3,3-3
			c1.3-0.7,2.8-1.1,4.6-1.1c3.1,0,5.7,0.7,7.9,2.1c2.2,1.4,3.9,3.4,5,6c1.1,2.6,1.7,5.8,1.7,9.6v0c0,3.8-0.6,7.1-1.9,9.8
			c-1.3,2.7-3.2,4.8-5.7,6.2c-2.5,1.4-5.5,2.1-8.9,2.1C67.1,151,64.1,150.3,61.7,148.9z M76.7,140.5c1.4-1.6,2.1-4,2.1-7v0
			c0-3.3-0.7-5.9-2.2-7.7c-1.5-1.8-3.6-2.7-6.4-2.7c-2.5,0-4.4,0.9-5.7,2.7c-1.4,1.8-2,4.4-2,7.7v0c0,3,0.7,5.3,2.1,6.9
			c1.4,1.6,3.4,2.4,6,2.4C73.2,143,75.3,142.2,76.7,140.5z"/>
	</g>
</g>
<g>
	<g>
		<path class="st1" d="M243.6,428.5c-2.5-1.4-4.4-3.4-5.6-6.1c-1.3-2.7-1.9-5.9-1.9-9.7v0c0-2.2,0.3-4.5,0.8-6.9
			c0.5-2.4,1.3-4.8,2.2-7.1c0.2-0.4,0.3-0.8,0.5-1.2c0.2-0.4,0.4-0.8,0.6-1.2l12.9-25.5h9l-15.1,29.5l0-1.5c0.7-1.3,1.7-2.3,3-3
			s2.8-1.1,4.6-1.1c3.1,0,5.7,0.7,7.9,2.1c2.2,1.4,3.9,3.4,5,6c1.1,2.6,1.7,5.8,1.7,9.6v0c0,3.8-0.6,7.1-1.9,9.8
			c-1.3,2.7-3.2,4.8-5.7,6.2c-2.5,1.4-5.5,2.1-8.9,2.1C249,430.6,246,429.9,243.6,428.5z M258.6,420.2c1.4-1.6,2.1-4,2.1-7v0
			c0-3.3-0.7-5.9-2.2-7.7c-1.5-1.8-3.6-2.7-6.4-2.7c-2.5,0-4.4,0.9-5.7,2.7c-1.4,1.8-2,4.4-2,7.7v0c0,3,0.7,5.3,2.1,6.9
			c1.4,1.6,3.4,2.4,6,2.4C255.1,422.6,257.2,421.8,258.6,420.2z"/>
	</g>
</g>
<g>
	<g>
		<path class="st0" d="M145.5,295c-3.5-2-6.2-4.9-8-8.7c-1.8-3.8-2.7-8.4-2.7-13.7v-0.1c0-3.1,0.4-6.4,1.1-9.8
			c0.7-3.4,1.8-6.8,3.2-10.1c0.2-0.6,0.5-1.1,0.8-1.7c0.3-0.6,0.5-1.1,0.8-1.6l18.3-36.2h12.7L150.2,255l0.1-2.1
			c1-1.8,2.4-3.2,4.2-4.2c1.8-1,4-1.5,6.5-1.5c4.4,0,8.1,1,11.2,2.9c3.1,2,5.5,4.8,7.1,8.6s2.4,8.3,2.4,13.5v0.1
			c0,5.4-0.9,10-2.7,13.9c-1.8,3.9-4.5,6.8-8,8.8c-3.5,2-7.8,3-12.7,3C153.3,298,149,297,145.5,295z M166.8,283.2c2-2.3,3-5.6,3-9.9
			v-0.1c0-4.7-1.1-8.3-3.2-10.9c-2.1-2.6-5.1-3.8-9.1-3.8c-3.5,0-6.2,1.3-8.1,3.9c-1.9,2.6-2.9,6.2-2.9,10.9v0.1c0,4.3,1,7.6,3,9.9
			c2,2.3,4.9,3.4,8.6,3.4C161.9,286.6,164.8,285.5,166.8,283.2z"/>
	</g>
</g>
</svg>
